# xmcd
#
# Track frame offsets: 
#        150
#        22150
#        42787
#        60425
#        78737
#        105562
#        125875
#        146600
#        166362
#        186987
#
# Disc length: 2788 seconds
#
# Revision: 2
# Processed by: cddbd v1.5.2PL0 Copyright (c) Steve Scherf et al.
# Submitted via: ExactAudioCopy v1.0b3
#
DISCID=8d0ae20a
DTITLE=金城武 - 只要你和我
DYEAR=1993
DGENRE=Pop
TTITLE0=只要你和我
TTITLE1=因為愛你
TTITLE2=回頭看你
TTITLE3=等等我
TTITLE4=Be My Girl
TTITLE5=愛得沒把握
TTITLE6=菊子姑娘
TTITLE7=說謊的眼睛
TTITLE8=好朋友
TTITLE9=跟你說晚安
EXTD=
EXTT0=
EXTT1=
EXTT2=
EXTT3=
EXTT4=
EXTT5=
EXTT6=
EXTT7=
EXTT8=
EXTT9=
PLAYORDER=
